<svg xmlns="http://www.w3.org/2000/svg" xmlns:xlink="http://www.w3.org/1999/xlink" version="1.1" width="256" height="256" viewBox="0 0 256 256" xml:space="preserve">
<desc>Created with Fabric.js 1.7.22</desc>
<defs>
</defs>
<g transform="translate(128 128) scale(0.72 0.72)" style="">
	<g style="stroke: none; stroke-width: 0; stroke-dasharray: none; stroke-linecap: butt; stroke-linejoin: miter; stroke-miterlimit: 10; fill: none; fill-rule: nonzero; opacity: 1;" transform="translate(-175.05 -175.05000000000004) scale(3.89 3.89)" >
	<path d="M 81.511 8.489 C 76.037 3.015 68.759 0 61.017 0 s -15.02 3.015 -20.494 8.489 c -7.123 7.123 -9.752 17.06 -7.895 26.265 c 0.001 0.137 0.031 0.271 0.086 0.395 c 1.136 5.254 3.733 10.253 7.809 14.328 c 5.474 5.475 12.752 8.489 20.494 8.489 s 15.021 -3.015 20.494 -8.489 C 86.985 44.003 90 36.725 90 28.983 S 86.985 13.963 81.511 8.489 z M 79.589 31.94 l -5.871 -1.281 l -5.612 -11.015 l 3.716 -6.057 l 10.813 -0.756 c 2.626 3.499 4.339 7.554 5.024 11.868 L 79.589 31.94 z M 44.865 50.602 l 0.756 -10.814 l 6.056 -3.716 l 11.015 5.613 l 1.28 5.872 l -7.24 8.068 C 52.418 54.941 48.364 53.228 44.865 50.602 z M 66.058 2.473 l 4.065 10.06 l -3.774 6.151 l -12.274 1.944 l -5.629 -5.629 l 1.697 -10.716 C 53.525 2.791 57.209 2 61.017 2 C 62.727 2 64.412 2.163 66.058 2.473 z M 36.33 18.107 l 10.701 -1.695 l 5.629 5.629 l -1.944 12.273 l -6.15 3.774 L 34.521 34.03 C 33.515 28.705 34.121 23.137 36.33 18.107 z M 80.097 48.063 c -1.312 1.312 -2.736 2.469 -4.249 3.468 l -9.92 -4.396 l -1.265 -5.806 l 8.7 -8.701 l 5.805 1.266 l 4.397 9.92 C 82.565 45.328 81.408 46.752 80.097 48.063 z" style="stroke: none; stroke-width: 1; stroke-dasharray: none; stroke-linecap: butt; stroke-linejoin: miter; stroke-miterlimit: 10; fill: rgb(0,0,0); fill-rule: nonzero; opacity: 1;" transform=" matrix(1 0 0 1 0 0) " stroke-linecap="round" />
	<path d="M 10.953 80.047 c -0.256 0 -0.512 -0.098 -0.707 -0.293 c -0.391 -0.391 -0.391 -1.023 0 -1.414 L 34.8 53.786 c 0.391 -0.391 1.023 -0.391 1.414 0 s 0.391 1.023 0 1.414 L 11.66 79.754 C 11.465 79.949 11.209 80.047 10.953 80.047 z" style="stroke: none; stroke-width: 1; stroke-dasharray: none; stroke-linecap: butt; stroke-linejoin: miter; stroke-miterlimit: 10; fill: rgb(0,0,0); fill-rule: nonzero; opacity: 1;" transform=" matrix(1 0 0 1 0 0) " stroke-linecap="round" />
	<path d="M 1 61.563 c -0.256 0 -0.512 -0.098 -0.707 -0.293 c -0.391 -0.391 -0.391 -1.023 0 -1.414 l 24.554 -24.554 c 0.391 -0.391 1.023 -0.391 1.414 0 s 0.391 1.023 0 1.414 L 1.707 61.27 C 1.512 61.465 1.256 61.563 1 61.563 z" style="stroke: none; stroke-width: 1; stroke-dasharray: none; stroke-linecap: butt; stroke-linejoin: miter; stroke-miterlimit: 10; fill: rgb(0,0,0); fill-rule: nonzero; opacity: 1;" transform=" matrix(1 0 0 1 0 0) " stroke-linecap="round" />
	<path d="M 29.437 90 c -0.256 0 -0.512 -0.098 -0.707 -0.293 c -0.391 -0.391 -0.391 -1.023 0 -1.414 l 24.554 -24.554 c 0.391 -0.391 1.023 -0.391 1.414 0 s 0.391 1.023 0 1.414 L 30.144 89.707 C 29.949 89.902 29.693 90 29.437 90 z" style="stroke: none; stroke-width: 1; stroke-dasharray: none; stroke-linecap: butt; stroke-linejoin: miter; stroke-miterlimit: 10; fill: rgb(0,0,0); fill-rule: nonzero; opacity: 1;" transform=" matrix(1 0 0 1 0 0) " stroke-linecap="round" />
</g>
</g>
</svg>